<svg xmlns="http://www.w3.org/2000/svg" xmlns:xlink="http://www.w3.org/1999/xlink" width="500" zoomAndPan="magnify" viewBox="0 0 375 374.999991" height="500" preserveAspectRatio="xMidYMid meet" version="1.0"><defs><g/><clipPath id="4e80cf9239"><path d="M 37.5 37.5 L 183.40625 37.5 L 183.40625 183.40625 L 37.5 183.40625 Z M 37.5 37.5 " clip-rule="nonzero"/></clipPath><clipPath id="293e8f79ba"><path d="M 191.59375 37.5 L 337.5 37.5 L 337.5 183.40625 L 191.59375 183.40625 Z M 191.59375 37.5 " clip-rule="nonzero"/></clipPath><clipPath id="d751866945"><path d="M 37.5 195.332031 L 183.40625 195.332031 L 183.40625 341.238281 L 37.5 341.238281 Z M 37.5 195.332031 " clip-rule="nonzero"/></clipPath><clipPath id="42b8bb4be1"><path d="M 191.59375 195.332031 L 337.5 195.332031 L 337.5 341.238281 L 191.59375 341.238281 Z M 191.59375 195.332031 " clip-rule="nonzero"/></clipPath><clipPath id="5eca08e905"><path d="M 149.128906 37.5 L 187.5 37.5 L 187.5 168.949219 L 149.128906 168.949219 Z M 149.128906 37.5 " clip-rule="nonzero"/></clipPath></defs><g clip-path="url(#4e80cf9239)"><path fill="#d0c3f1" d="M 37.5 37.5 L 183.40625 37.5 L 183.40625 183.40625 L 37.5 183.40625 Z M 37.5 37.5 " fill-opacity="1" fill-rule="nonzero"/></g><g clip-path="url(#293e8f79ba)"><path fill="#ab1d79" d="M 191.59375 37.5 L 337.5 37.5 L 337.5 183.40625 L 191.59375 183.40625 Z M 191.59375 37.5 " fill-opacity="1" fill-rule="nonzero"/></g><g clip-path="url(#d751866945)"><path fill="#efebe2" d="M 37.5 195.332031 L 183.40625 195.332031 L 183.40625 341.238281 L 37.5 341.238281 Z M 37.5 195.332031 " fill-opacity="1" fill-rule="nonzero"/></g><g clip-path="url(#42b8bb4be1)"><path fill="#fbeb78" d="M 191.59375 195.332031 L 337.5 195.332031 L 337.5 341.238281 L 191.59375 341.238281 Z M 191.59375 195.332031 " fill-opacity="1" fill-rule="nonzero"/></g><g clip-path="url(#5eca08e905)"><path fill="#000000" d="M 149.128906 37.5 L 187.5 37.5 L 187.5 168.949219 L 149.128906 168.949219 Z M 149.128906 37.5 " fill-opacity="1" fill-rule="nonzero"/></g><g fill="#000000" fill-opacity="1"><g transform="translate(24.000003, 339.303421)"><g><path d="M 76.5 2.953125 C 64.25 2.953125 53.421875 -0.015625 44.015625 -5.953125 C 34.609375 -11.898438 27.234375 -20.882812 21.890625 -32.90625 C 16.554688 -44.9375 13.890625 -59.75 13.890625 -77.34375 C 13.890625 -95.03125 16.628906 -109.882812 22.109375 -121.90625 C 27.585938 -133.9375 35.164062 -142.921875 44.84375 -148.859375 C 54.53125 -154.804688 65.738281 -157.78125 78.46875 -157.78125 C 88.113281 -157.78125 96.46875 -156.117188 103.53125 -152.796875 C 110.59375 -149.484375 116.554688 -144.316406 121.421875 -137.296875 L 124.375 -138 L 124.375 -217.03125 L 163.265625 -217.03125 L 163.265625 0 L 124.375 0 L 124.375 -20.078125 L 121.421875 -20.640625 C 117.117188 -13.335938 111.222656 -7.578125 103.734375 -3.359375 C 96.253906 0.847656 87.175781 2.953125 76.5 2.953125 Z M 89.140625 -30.046875 C 100.085938 -30.046875 108.742188 -33.953125 115.109375 -41.765625 C 121.472656 -49.578125 124.65625 -61.4375 124.65625 -77.34375 C 124.65625 -93.257812 121.472656 -105.144531 115.109375 -113 C 108.742188 -120.863281 100.085938 -124.796875 89.140625 -124.796875 C 77.722656 -124.796875 68.992188 -120.984375 62.953125 -113.359375 C 56.921875 -105.734375 53.90625 -93.726562 53.90625 -77.34375 C 53.90625 -61.0625 56.921875 -49.109375 62.953125 -41.484375 C 68.992188 -33.859375 77.722656 -30.046875 89.140625 -30.046875 Z M 89.140625 -30.046875 "/></g></g></g><g fill="#000000" fill-opacity="1"><g transform="translate(176.345295, 187.928315)"><g><path d="M 15.59375 0 L 15.59375 -151.59375 L 42.75 -151.59375 L 42.75 -67.453125 L 45.40625 -67.453125 L 76.671875 -108.15625 L 104.234375 -108.15625 L 104.234375 -105.890625 L 67.453125 -58.4375 L 108.34375 -2.453125 L 108.34375 0 L 79.71875 0 L 45.40625 -45.59375 L 42.75 -45.59375 L 42.75 0 Z M 15.59375 0 "/></g></g></g><g fill="#000000" fill-opacity="1"><g transform="translate(176.345295, 340.008717)"><g><path d="M 15.71875 0 L 15.71875 -152.859375 L 43.109375 -152.859375 L 43.109375 -68.015625 L 45.78125 -68.015625 L 77.3125 -109.046875 L 105.09375 -109.046875 L 105.09375 -106.78125 L 68.015625 -58.921875 L 109.25 -2.46875 L 109.25 0 L 80.375 0 L 45.78125 -45.96875 L 43.109375 -45.96875 L 43.109375 0 Z M 15.71875 0 "/></g></g></g></svg>